# 3ds Max Wavefront OBJ Exporter v0.97b - (c)2007 guruware
# File Created: 28.08.2018 14:39:53

mtllib part1.mtl

#
# object Object007
#

v  -2.1740 -0.9489 2.1731
v  2.1752 -0.9489 2.1731
v  2.1752 -0.9489 -2.1760
v  -2.1740 -0.9489 -2.1760
v  -4.4999 -1.5989 4.5006
v  4.5005 -1.5989 4.5006
v  4.5005 -1.3989 4.5006
v  -4.4999 -1.3989 4.5006
v  4.5005 -1.5989 -4.4993
v  4.5005 -1.3989 -4.4993
v  -4.4999 -1.5989 -4.4993
v  -4.4999 -1.3989 -4.4993
v  2.4752 -1.3989 2.4731
v  -2.4740 -1.3989 2.4731
v  2.4752 -1.3989 -2.4760
v  -2.4740 -1.3989 -2.4760
v  2.4752 -1.1489 2.4731
v  -2.4740 -1.1489 2.4731
v  2.4752 -1.1489 -2.4760
v  -2.4740 -1.1489 -2.4760
v  2.1752 -1.1489 2.1731
v  -2.1740 -1.1489 2.1731
v  2.1752 -1.1489 -2.1760
v  -2.1740 -1.1489 -2.1760
v  -4.5005 -1.4011 -4.5011
v  -4.5005 1.5989 -4.5011
v  -4.3020 1.5989 -4.5011
v  -4.3020 -1.4011 -4.5011
v  -4.5005 -1.4011 -4.3026
v  -4.3020 -1.4011 -4.3026
v  -4.3020 1.5989 -4.3026
v  -4.5005 1.5989 -4.3026
v  -4.5005 -1.4011 4.3026
v  -4.5005 1.5989 4.3026
v  -4.3020 1.5989 4.3026
v  -4.3020 -1.4011 4.3026
v  -4.5005 -1.4011 4.5011
v  -4.3020 -1.4011 4.5011
v  -4.3020 1.5989 4.5011
v  -4.5005 1.5989 4.5011
v  4.3011 -1.4011 4.3026
v  4.3011 1.5989 4.3026
v  4.4996 1.5989 4.3026
v  4.4996 -1.4011 4.3026
v  4.3011 -1.4011 4.5011
v  4.4996 -1.4011 4.5011
v  4.4996 1.5989 4.5011
v  4.3011 1.5989 4.5011
v  4.3011 -1.4011 -4.5011
v  4.3011 1.5989 -4.5011
v  4.4996 1.5989 -4.5011
v  4.4996 -1.4011 -4.5011
v  4.3011 -1.4011 -4.3026
v  4.4996 -1.4011 -4.3026
v  4.4996 1.5989 -4.3026
v  4.3011 1.5989 -4.3026
# 56 vertices

vn 0.0000 1.0000 -0.0000
vn 0.0000 0.0000 1.0000
vn 1.0000 0.0000 -0.0000
vn 0.0000 0.0000 -1.0000
vn -1.0000 0.0000 -0.0000
vn -0.0000 1.0000 -0.0000
vn 0.0000 -0.0000 1.0000
vn 0.0000 -1.0000 -0.0000
# 8 vertex normals

vt 0.4515 0.4304 0.0000
vt 0.1651 0.4304 0.0000
vt 0.1651 0.1441 0.0000
vt 0.4515 0.1441 0.0000
vt 0.7771 0.4059 0.0000
vt 0.7771 0.9985 0.0000
vt 0.7639 0.9985 0.0000
vt 0.7639 0.4059 0.0000
vt 0.8255 0.4059 0.0000
vt 0.8255 0.9985 0.0000
vt 0.8123 0.9985 0.0000
vt 0.8123 0.4059 0.0000
vt 0.7932 0.4059 0.0000
vt 0.7932 0.9985 0.0000
vt 0.7800 0.9985 0.0000
vt 0.7800 0.4059 0.0000
vt 0.8094 0.4059 0.0000
vt 0.8094 0.9985 0.0000
vt 0.7962 0.9985 0.0000
vt 0.7962 0.4059 0.0000
vt 0.5941 0.0015 0.0000
vt 0.5941 0.5941 0.0000
vt 0.4606 0.4607 0.0000
vt 0.4606 0.1349 0.0000
vt 0.0015 0.5941 0.0000
vt 0.1347 0.4607 0.0000
vt 0.0015 0.0015 0.0000
vt 0.1347 0.1349 0.0000
vt 0.8449 0.4059 0.0000
vt 0.8449 0.7318 0.0000
vt 0.8285 0.7318 0.0000
vt 0.8285 0.4059 0.0000
vt 0.8644 0.4059 0.0000
vt 0.8644 0.7318 0.0000
vt 0.8479 0.7318 0.0000
vt 0.8479 0.4059 0.0000
vt 0.7021 0.6556 0.0000
vt 0.7021 0.9814 0.0000
vt 0.6856 0.9814 0.0000
vt 0.6856 0.6556 0.0000
vt 0.7215 0.6556 0.0000
vt 0.7215 0.9814 0.0000
vt 0.7051 0.9814 0.0000
vt 0.7051 0.6556 0.0000
vt 0.0015 0.5971 0.0000
vt 0.3274 0.5971 0.0000
vt 0.3076 0.6168 0.0000
vt 0.0213 0.6168 0.0000
vt 0.3274 0.9229 0.0000
vt 0.3076 0.9032 0.0000
vt 0.0015 0.9229 0.0000
vt 0.0213 0.9032 0.0000
vt 0.7538 0.6556 0.0000
vt 0.7538 0.9419 0.0000
vt 0.7406 0.9419 0.0000
vt 0.7406 0.6556 0.0000
vt 0.7377 0.6556 0.0000
vt 0.7377 0.9419 0.0000
vt 0.7245 0.9419 0.0000
vt 0.7245 0.6556 0.0000
vt 0.8805 0.4059 0.0000
vt 0.8805 0.6923 0.0000
vt 0.8673 0.6923 0.0000
vt 0.8673 0.4059 0.0000
vt 0.4515 0.4451 0.0000
vt 0.1651 0.4451 0.0000
vt 0.1651 0.4319 0.0000
vt 0.4515 0.4319 0.0000
vt 0.7991 0.4012 0.0000
vt 0.7991 0.2037 0.0000
vt 0.8121 0.2037 0.0000
vt 0.8121 0.4012 0.0000
vt 0.8965 0.6034 0.0000
vt 0.8835 0.6034 0.0000
vt 0.8835 0.4059 0.0000
vt 0.8965 0.4059 0.0000
vt 0.1788 0.7116 0.0000
vt 0.1788 0.6985 0.0000
vt 0.1918 0.6985 0.0000
vt 0.1918 0.7116 0.0000
vt 0.6313 0.8940 0.0000
vt 0.6313 0.6965 0.0000
vt 0.6444 0.6965 0.0000
vt 0.6444 0.8940 0.0000
vt 0.1496 0.6985 0.0000
vt 0.1627 0.6985 0.0000
vt 0.1627 0.7116 0.0000
vt 0.1496 0.7116 0.0000
vt 0.6444 0.4387 0.0000
vt 0.6444 0.6363 0.0000
vt 0.6313 0.6363 0.0000
vt 0.6313 0.4387 0.0000
vt 0.5309 0.7946 0.0000
vt 0.5309 0.5971 0.0000
vt 0.5440 0.5971 0.0000
vt 0.5440 0.7946 0.0000
vt 0.8415 0.9323 0.0000
vt 0.8285 0.9323 0.0000
vt 0.8285 0.7347 0.0000
vt 0.8415 0.7347 0.0000
vt 0.1642 0.7116 0.0000
vt 0.1642 0.6985 0.0000
vt 0.1773 0.6985 0.0000
vt 0.1773 0.7116 0.0000
vt 0.6459 0.6363 0.0000
vt 0.6459 0.4387 0.0000
vt 0.6589 0.4387 0.0000
vt 0.6589 0.6363 0.0000
vt 0.1496 0.7130 0.0000
vt 0.1627 0.7130 0.0000
vt 0.1627 0.7261 0.0000
vt 0.1496 0.7261 0.0000
vt 0.6298 0.6965 0.0000
vt 0.6298 0.8940 0.0000
vt 0.6167 0.8940 0.0000
vt 0.6167 0.6965 0.0000
vt 0.8479 0.9323 0.0000
vt 0.8479 0.7347 0.0000
vt 0.8610 0.7347 0.0000
vt 0.8610 0.9323 0.0000
vt 0.1637 0.3416 0.0000
vt 0.1506 0.3416 0.0000
vt 0.1506 0.1441 0.0000
vt 0.1637 0.1441 0.0000
vt 0.1788 0.7261 0.0000
vt 0.1788 0.7130 0.0000
vt 0.1918 0.7130 0.0000
vt 0.1918 0.7261 0.0000
vt 0.6604 0.6363 0.0000
vt 0.6604 0.4387 0.0000
vt 0.6735 0.4387 0.0000
vt 0.6735 0.6363 0.0000
vt 0.1918 0.6839 0.0000
vt 0.1918 0.6970 0.0000
vt 0.1788 0.6970 0.0000
vt 0.1788 0.6839 0.0000
vt 0.6589 0.6965 0.0000
vt 0.6589 0.8940 0.0000
vt 0.6459 0.8940 0.0000
vt 0.6459 0.6965 0.0000
vt 0.7991 0.1990 0.0000
vt 0.7991 0.0015 0.0000
vt 0.8121 0.0015 0.0000
vt 0.8121 0.1990 0.0000
vt 0.3419 0.9968 0.0000
vt 0.3288 0.9968 0.0000
vt 0.3288 0.7993 0.0000
vt 0.3419 0.7993 0.0000
vt 0.1642 0.6970 0.0000
vt 0.1642 0.6839 0.0000
vt 0.1773 0.6839 0.0000
vt 0.1773 0.6970 0.0000
vt 0.6604 0.8940 0.0000
vt 0.6604 0.6965 0.0000
vt 0.6735 0.6965 0.0000
vt 0.6735 0.8940 0.0000
vt 0.1642 0.7130 0.0000
vt 0.1773 0.7130 0.0000
vt 0.1773 0.7261 0.0000
vt 0.1642 0.7261 0.0000
vt 0.6298 0.4387 0.0000
vt 0.6298 0.6363 0.0000
vt 0.6167 0.6363 0.0000
vt 0.6167 0.4387 0.0000
# 164 texture coords

g Object007
usemtl wire_057008136
s 4
f 1/1/1 2/2/1 3/3/1 4/4/1 
s 8
f 5/5/2 6/6/2 7/7/2 8/8/2 
s 16
f 6/9/3 9/10/3 10/11/3 7/12/3 
s 32
f 9/13/4 11/14/4 12/15/4 10/16/4 
s 64
f 11/17/5 5/18/5 8/19/5 12/20/5 
s off
f 8/21/1 7/22/1 13/23/1 14/24/1 
f 7/22/1 10/25/1 15/26/1 13/23/1 
f 10/25/1 12/27/1 16/28/1 15/26/1 
f 12/27/6 8/21/6 14/24/6 16/28/6 
f 14/29/2 13/30/2 17/31/2 18/32/2 
f 13/33/3 15/34/3 19/35/3 17/36/3 
f 15/37/4 16/38/4 20/39/4 19/40/4 
f 16/41/5 14/42/5 18/43/5 20/44/5 
f 18/45/1 17/46/1 21/47/1 22/48/1 
f 17/46/1 19/49/1 23/50/1 21/47/1 
f 19/49/1 20/51/1 24/52/1 23/50/1 
f 20/51/1 18/45/1 22/48/1 24/52/1 
f 22/53/2 21/54/2 2/55/2 1/56/2 
f 21/57/3 23/58/3 3/59/3 2/60/3 
f 23/61/4 24/62/4 4/63/4 3/64/4 
f 24/65/5 22/66/5 1/67/5 4/68/5 
s 2
f 25/69/4 26/70/4 27/71/4 28/72/4 
s 4
f 29/73/7 30/74/7 31/75/7 32/76/7 
s 8
f 25/77/8 28/78/8 30/79/8 29/80/8 
s 16
f 28/81/3 27/82/3 31/83/3 30/84/3 
s 32
f 27/85/1 26/86/1 32/87/1 31/88/1 
s 64
f 26/89/5 25/90/5 29/91/5 32/92/5 
s 2
f 33/93/4 34/94/4 35/95/4 36/96/4 
s 4
f 37/97/7 38/98/7 39/99/7 40/100/7 
s 8
f 33/101/8 36/102/8 38/103/8 37/104/8 
s 16
f 36/105/3 35/106/3 39/107/3 38/108/3 
s 32
f 35/109/1 34/110/1 40/111/1 39/112/1 
s 64
f 34/113/5 33/114/5 37/115/5 40/116/5 
s 2
f 41/117/4 42/118/4 43/119/4 44/120/4 
s 4
f 45/121/7 46/122/7 47/123/7 48/124/7 
s 8
f 41/125/8 44/126/8 46/127/8 45/128/8 
s 16
f 44/129/3 43/130/3 47/131/3 46/132/3 
s 32
f 43/133/1 42/134/1 48/135/1 47/136/1 
s 64
f 42/137/5 41/138/5 45/139/5 48/140/5 
s 2
f 49/141/4 50/142/4 51/143/4 52/144/4 
s 4
f 53/145/7 54/146/7 55/147/7 56/148/7 
s 8
f 49/149/8 52/150/8 54/151/8 53/152/8 
s 16
f 52/153/3 51/154/3 55/155/3 54/156/3 
s 32
f 51/157/1 50/158/1 56/159/1 55/160/1 
s 64
f 50/161/5 49/162/5 53/163/5 56/164/5 
# 45 polygons

