# 3ds Max Wavefront OBJ Exporter v0.97b - (c)2007 guruware
# File Created: 28.08.2018 14:40:44

mtllib part4.mtl

#
# object Object012
#

v  0.5605 0.0470 -0.5822
v  -0.5605 0.0470 -0.5822
v  -0.5605 0.0470 0.5822
v  0.5605 0.0470 0.5822
v  -0.6391 0.0570 0.6435
v  0.6391 0.0570 0.6435
v  0.5605 0.0570 0.5822
v  -0.5605 0.0570 0.5822
v  0.6391 0.0570 -0.6435
v  0.5605 0.0570 -0.5822
v  -0.6391 0.0570 -0.6435
v  -0.5605 0.0570 -0.5822
v  -0.6391 0.0000 0.6435
v  0.6391 0.0000 0.6435
v  0.6391 0.0000 -0.6435
v  -0.6391 0.0000 -0.6435
v  0.5605 -0.0470 -0.5822
v  0.5605 -0.0470 0.5822
v  -0.5605 -0.0470 0.5822
v  -0.5605 -0.0470 -0.5822
v  -0.6391 -0.0570 0.6435
v  -0.5605 -0.0570 0.5822
v  0.5605 -0.0570 0.5822
v  0.6391 -0.0570 0.6435
v  0.5605 -0.0570 -0.5822
v  0.6391 -0.0570 -0.6435
v  -0.5605 -0.0570 -0.5822
v  -0.6391 -0.0570 -0.6435
# 28 vertices

vn 0.0000 1.0000 -0.0000
vn 0.0000 0.0000 -1.0000
vn -1.0000 0.0000 0.0000
vn 0.0000 0.0000 1.0000
vn 1.0000 0.0000 0.0000
vn 1.0000 0.0000 -0.0000
vn -1.0000 0.0000 -0.0000
vn 0.0000 -1.0000 -0.0000
vn 1.0000 -0.0000 -0.0000
# 9 vertex normals

vt 0.2269 0.7724 0.0000
vt 0.2269 0.6985 0.0000
vt 0.3036 0.6985 0.0000
vt 0.3036 0.7724 0.0000
vt 0.1995 0.7339 0.0000
vt 0.1154 0.7339 0.0000
vt 0.1206 0.7298 0.0000
vt 0.1944 0.7298 0.0000
vt 0.1154 0.6491 0.0000
vt 0.1206 0.6532 0.0000
vt 0.1995 0.6491 0.0000
vt 0.1944 0.6532 0.0000
vt 0.1257 0.7375 0.0000
vt 0.1995 0.7375 0.0000
vt 0.1995 0.7382 0.0000
vt 0.1257 0.7382 0.0000
vt 0.6304 0.0258 0.0000
vt 0.7071 0.0258 0.0000
vt 0.7071 0.0265 0.0000
vt 0.6304 0.0265 0.0000
vt 0.1257 0.7396 0.0000
vt 0.1995 0.7396 0.0000
vt 0.1995 0.7403 0.0000
vt 0.1257 0.7403 0.0000
vt 0.6216 0.0350 0.0000
vt 0.6216 0.1117 0.0000
vt 0.6209 0.1117 0.0000
vt 0.6209 0.0350 0.0000
vt 0.6143 0.2212 0.0000
vt 0.6984 0.2212 0.0000
vt 0.6984 0.2249 0.0000
vt 0.6143 0.2249 0.0000
vt 0.6216 0.3068 0.0000
vt 0.6216 0.3915 0.0000
vt 0.6178 0.3915 0.0000
vt 0.6178 0.3068 0.0000
vt 0.7005 0.2122 0.0000
vt 0.7847 0.2122 0.0000
vt 0.7847 0.2159 0.0000
vt 0.7005 0.2159 0.0000
vt 0.6999 0.2212 0.0000
vt 0.7847 0.2212 0.0000
vt 0.7847 0.2249 0.0000
vt 0.6999 0.2249 0.0000
vt 0.3036 0.6971 0.0000
vt 0.2269 0.6971 0.0000
vt 0.2269 0.6233 0.0000
vt 0.3036 0.6233 0.0000
vt 0.5006 0.7689 0.0000
vt 0.4965 0.7637 0.0000
vt 0.4965 0.6899 0.0000
vt 0.5006 0.6848 0.0000
vt 0.4199 0.6899 0.0000
vt 0.4158 0.6848 0.0000
vt 0.4199 0.7637 0.0000
vt 0.4158 0.7689 0.0000
vt 0.1257 0.7360 0.0000
vt 0.1257 0.7354 0.0000
vt 0.1995 0.7354 0.0000
vt 0.1995 0.7360 0.0000
vt 0.6339 0.0233 0.0000
vt 0.6339 0.0226 0.0000
vt 0.7106 0.0226 0.0000
vt 0.7106 0.0233 0.0000
vt 0.2750 0.8961 0.0000
vt 0.2744 0.8961 0.0000
vt 0.2744 0.8223 0.0000
vt 0.2750 0.8223 0.0000
vt 0.6177 0.0387 0.0000
vt 0.6183 0.0387 0.0000
vt 0.6183 0.1154 0.0000
vt 0.6177 0.1154 0.0000
vt 0.6143 0.2287 0.0000
vt 0.6984 0.2287 0.0000
vt 0.6141 0.3068 0.0000
vt 0.6141 0.3915 0.0000
vt 0.7005 0.2197 0.0000
vt 0.7847 0.2197 0.0000
vt 0.6999 0.2287 0.0000
vt 0.7847 0.2287 0.0000
# 80 texture coords

g Object012
usemtl wire_057008136
s 4
f 1/1/1 2/2/1 3/3/1 4/4/1 
s off
f 5/5/1 6/6/1 7/7/1 8/8/1 
f 6/6/1 9/9/1 10/10/1 7/7/1 
f 9/9/1 11/11/1 12/12/1 10/10/1 
f 11/11/1 5/5/1 8/8/1 12/12/1 
f 8/13/2 7/14/2 4/15/2 3/16/2 
f 7/17/3 10/18/3 1/19/3 4/20/3 
f 10/21/4 12/22/4 2/23/4 1/24/4 
f 12/25/5 8/26/5 3/27/5 2/28/5 
f 6/29/4 5/30/4 13/31/4 14/32/4 
f 9/33/6 6/34/6 14/35/6 15/36/6 
f 11/37/2 9/38/2 15/39/2 16/40/2 
f 5/41/7 11/42/7 16/43/7 13/44/7 
s 4
f 17/45/8 18/46/8 19/47/8 20/48/8 
s off
f 21/49/8 22/50/8 23/51/8 24/52/8 
f 24/52/8 23/51/8 25/53/8 26/54/8 
f 26/54/8 25/53/8 27/55/8 28/56/8 
f 28/56/8 27/55/8 22/50/8 21/49/8 
f 22/57/2 19/58/2 18/59/2 23/60/2 
f 23/61/3 18/62/3 17/63/3 25/64/3 
f 25/65/4 17/66/4 20/67/4 27/68/4 
f 27/69/5 20/70/5 19/71/5 22/72/5 
f 24/73/4 14/32/4 13/31/4 21/74/4 
f 26/75/9 15/36/9 14/35/9 24/76/9 
f 28/77/2 16/40/2 15/39/2 26/78/2 
f 21/79/7 13/44/7 16/43/7 28/80/7 
# 26 polygons

